{
  "accessors": [
    {
      "bufferView": 0,
      "componentType": 5126,
      "count": 23994,
      "max": [
        11.864219665527344,
        4.597907543182373,
        7.230691909790039
      ],
      "min": [
        6.162721633911133,
        1.0898815393447876,
        -10.701595306396484
      ],
      "type": "VEC3"
    },
    {
      "bufferView": 1,
      "componentType": 5126,
      "count": 23994,
      "type": "VEC3"
    },
    {
      "bufferView": 2,
      "componentType": 5126,
      "count": 23994,
      "type": "VEC2"
    },
    {
      "bufferView": 3,
      "componentType": 5123,
      "count": 23994,
      "type": "SCALAR"
    }
  ],
  "asset": {
    "generator": "Khronos glTF Blender I/O v0.9.36",
    "version": "2.0"
  },
  "bufferViews": [
    {
      "buffer": 0,
      "byteLength": 287928,
      "byteOffset": 0
    },
    {
      "buffer": 0,
      "byteLength": 287928,
      "byteOffset": 287928
    },
    {
      "buffer": 0,
      "byteLength": 191952,
      "byteOffset": 575856
    },
    {
      "buffer": 0,
      "byteLength": 47988,
      "byteOffset": 767808
    },
    {
      "buffer": 0,
      "byteLength": 1,
      "byteOffset": 0
    }
  ],
  "buffers": [
    {
      "byteLength": 815800,
      "uri": "ifland.bin"
    }
  ],
  "images": [
    {
      "uri": "image0.png"
    }
  ],
  "materials": [
    {
      "doubleSided": true,
      "name": "defaultMat.001",
      "pbrMetallicRoughness": {
        "baseColorTexture": {
          "index": 0,
          "texCoord": 0
        },
        "metallicFactor": 0.0,
        "roughnessFactor": 1.0
      }
    }
  ],
  "meshes": [
    {
      "name": "04_07_2017_Ifland_12689_v1_fb.001",
      "primitives": [
        {
          "attributes": {
            "POSITION": 0,
            "NORMAL": 1,
            "TEXCOORD_0": 2
          },
          "indices": 3,
          "material": 0
        }
      ]
    }
  ],
  "nodes": [
    {
      "name": "Light",
      "rotation": [
        0.16907575726509094,
        0.7558803558349609,
        -0.27217137813568115,
        0.570947527885437
      ],
      "translation": [
        4.076245307922363,
        5.903861999511719,
        -1.0054539442062378
      ]
    },
    {
      "name": "Camera",
      "rotation": [
        0.483536034822464,
        0.33687159419059753,
        -0.20870360732078552,
        0.7804827094078064
      ],
      "translation": [
        7.358891487121582,
        4.958309173583984,
        6.925790786743164
      ]
    },
    {
      "mesh": 0,
      "name": "04_07_2017_Ifland_12689_v1_fb.001",
      "rotation": [
        0.7071068286895752,
        0.0,
        0.0,
        0.7071067094802856
      ]
    }
  ],
  "scene": 0,
  "scenes": [
    {
      "name": "Scene",
      "nodes": [
        0,
        1,
        2
      ]
    }
  ],
  "textures": [
    {
      "source": 0
    }
  ]
}