{
	"accessors" : 
	[
		{
			"bufferView" : 2,
			"byteOffset" : 0,
			"componentType" : 5126,
			"count" : 19968,
			"max" : 
			[
				1,
				1,
				1,
				1
			],
			"min" : 
			[
				0,
				0.01606770046055317,
				0,
				1
			],
			"name" : "accessor_color_m0-PolyPaper21_-93750",
			"type" : "VEC4"
		},
		{
			"bufferView" : 2,
			"byteOffset" : 319488,
			"componentType" : 5126,
			"count" : 19992,
			"max" : 
			[
				1,
				1,
				1,
				1
			],
			"min" : 
			[
				0,
				0.01606770046055317,
				0,
				1
			],
			"name" : "accessor_color_m1-PolyPaper21_-93756",
			"type" : "VEC4"
		},
		{
			"bufferView" : 2,
			"byteOffset" : 639360,
			"componentType" : 5126,
			"count" : 19992,
			"max" : 
			[
				1,
				1,
				1,
				1
			],
			"min" : 
			[
				0.0697270855307579,
				0.0384727455675602,
				0.01188133470714092,
				1
			],
			"name" : "accessor_color_m2-PolyPaper21_-93762",
			"type" : "VEC4"
		},
		{
			"bufferView" : 2,
			"byteOffset" : 959232,
			"componentType" : 5126,
			"count" : 19992,
			"max" : 
			[
				1,
				1,
				1,
				1
			],
			"min" : 
			[
				0,
				0.006584956776350737,
				0,
				1
			],
			"name" : "accessor_color_m3-PolyPaper21_-93768",
			"type" : "VEC4"
		},
		{
			"bufferView" : 2,
			"byteOffset" : 1279104,
			"componentType" : 5126,
			"count" : 19992,
			"max" : 
			[
				1,
				1,
				1,
				1
			],
			"min" : 
			[
				0,
				0.006584956776350737,
				0,
				1
			],
			"name" : "accessor_color_m4-PolyPaper21_-93774",
			"type" : "VEC4"
		},
		{
			"bufferView" : 2,
			"byteOffset" : 1598976,
			"componentType" : 5126,
			"count" : 19992,
			"max" : 
			[
				1,
				1,
				1,
				1
			],
			"min" : 
			[
				0,
				0.006584956776350737,
				0,
				1
			],
			"name" : "accessor_color_m5-PolyPaper21_-93780",
			"type" : "VEC4"
		},
		{
			"bufferView" : 2,
			"byteOffset" : 1918848,
			"componentType" : 5126,
			"count" : 13056,
			"max" : 
			[
				1,
				1,
				1,
				1
			],
			"min" : 
			[
				0,
				0.05284162610769272,
				0,
				1
			],
			"name" : "accessor_color_m6-PolyPaper21_-93786",
			"type" : "VEC4"
		},
		{
			"bufferView" : 0,
			"byteOffset" : 0,
			"componentType" : 5123,
			"count" : 28356,
			"max" : 
			[
				19967
			],
			"min" : 
			[
				0
			],
			"name" : "accessor_indices_0_m0-PolyPaper21_-93750",
			"type" : "SCALAR"
		},
		{
			"bufferView" : 0,
			"byteOffset" : 56712,
			"componentType" : 5123,
			"count" : 28224,
			"max" : 
			[
				19991
			],
			"min" : 
			[
				0
			],
			"name" : "accessor_indices_0_m1-PolyPaper21_-93756",
			"type" : "SCALAR"
		},
		{
			"bufferView" : 0,
			"byteOffset" : 113160,
			"componentType" : 5123,
			"count" : 28224,
			"max" : 
			[
				19991
			],
			"min" : 
			[
				0
			],
			"name" : "accessor_indices_0_m2-PolyPaper21_-93762",
			"type" : "SCALAR"
		},
		{
			"bufferView" : 0,
			"byteOffset" : 169608,
			"componentType" : 5123,
			"count" : 28224,
			"max" : 
			[
				19991
			],
			"min" : 
			[
				0
			],
			"name" : "accessor_indices_0_m3-PolyPaper21_-93768",
			"type" : "SCALAR"
		},
		{
			"bufferView" : 0,
			"byteOffset" : 226056,
			"componentType" : 5123,
			"count" : 28224,
			"max" : 
			[
				19991
			],
			"min" : 
			[
				0
			],
			"name" : "accessor_indices_0_m4-PolyPaper21_-93774",
			"type" : "SCALAR"
		},
		{
			"bufferView" : 0,
			"byteOffset" : 282504,
			"componentType" : 5123,
			"count" : 28224,
			"max" : 
			[
				19991
			],
			"min" : 
			[
				0
			],
			"name" : "accessor_indices_0_m5-PolyPaper21_-93780",
			"type" : "SCALAR"
		},
		{
			"bufferView" : 0,
			"byteOffset" : 338952,
			"componentType" : 5123,
			"count" : 18432,
			"max" : 
			[
				13055
			],
			"min" : 
			[
				0
			],
			"name" : "accessor_indices_0_m6-PolyPaper21_-93786",
			"type" : "SCALAR"
		},
		{
			"bufferView" : 1,
			"byteOffset" : 239616,
			"componentType" : 5126,
			"count" : 19968,
			"max" : 
			[
				1,
				1,
				1
			],
			"min" : 
			[
				-1,
				-1,
				-1
			],
			"name" : "accessor_normal_m0-PolyPaper21_-93750",
			"type" : "VEC3"
		},
		{
			"bufferView" : 1,
			"byteOffset" : 719136,
			"componentType" : 5126,
			"count" : 19992,
			"max" : 
			[
				0.9996641000000001,
				0.9994151999999999,
				0.9996576
			],
			"min" : 
			[
				-0.9996642,
				-0.9994151999999999,
				-0.9996576
			],
			"name" : "accessor_normal_m1-PolyPaper21_-93756",
			"type" : "VEC3"
		},
		{
			"bufferView" : 1,
			"byteOffset" : 1198944,
			"componentType" : 5126,
			"count" : 19992,
			"max" : 
			[
				0.9981359,
				0.9999352,
				0.9979953
			],
			"min" : 
			[
				-0.9981363,
				-0.999935,
				-0.9979953
			],
			"name" : "accessor_normal_m2-PolyPaper21_-93762",
			"type" : "VEC3"
		},
		{
			"bufferView" : 1,
			"byteOffset" : 1678752,
			"componentType" : 5126,
			"count" : 19992,
			"max" : 
			[
				0.9993506,
				0.9999898,
				0.9988202
			],
			"min" : 
			[
				-0.9993505,
				-0.9999898,
				-0.9988202
			],
			"name" : "accessor_normal_m3-PolyPaper21_-93768",
			"type" : "VEC3"
		},
		{
			"bufferView" : 1,
			"byteOffset" : 2158560,
			"componentType" : 5126,
			"count" : 19992,
			"max" : 
			[
				0.9995798,
				0.9999104,
				0.9998484
			],
			"min" : 
			[
				-0.9995798,
				-0.9999104,
				-0.9998484
			],
			"name" : "accessor_normal_m4-PolyPaper21_-93774",
			"type" : "VEC3"
		},
		{
			"bufferView" : 1,
			"byteOffset" : 2638368,
			"componentType" : 5126,
			"count" : 19992,
			"max" : 
			[
				0.9994251,
				0.9999912,
				0.9989918
			],
			"min" : 
			[
				-0.9994252,
				-0.9999912,
				-0.9989918
			],
			"name" : "accessor_normal_m5-PolyPaper21_-93780",
			"type" : "VEC3"
		},
		{
			"bufferView" : 1,
			"byteOffset" : 3034944,
			"componentType" : 5126,
			"count" : 13056,
			"max" : 
			[
				0.9975472,
				0.9994534,
				0.999763
			],
			"min" : 
			[
				-0.997547,
				-0.9994534,
				-0.999763
			],
			"name" : "accessor_normal_m6-PolyPaper21_-93786",
			"type" : "VEC3"
		},
		{
			"bufferView" : 1,
			"byteOffset" : 0,
			"componentType" : 5126,
			"count" : 19968,
			"max" : 
			[
				3.457951,
				-0.6400326,
				4.37992
			],
			"min" : 
			[
				-4.772839,
				-4.480034,
				-4.590889
			],
			"name" : "accessor_position_m0-PolyPaper21_-93750",
			"type" : "VEC3"
		},
		{
			"bufferView" : 1,
			"byteOffset" : 479232,
			"componentType" : 5126,
			"count" : 19992,
			"max" : 
			[
				3.236274,
				-2.125105,
				-1.721473
			],
			"min" : 
			[
				-4.522273,
				-2.92444,
				-4.129918
			],
			"name" : "accessor_position_m1-PolyPaper21_-93756",
			"type" : "VEC3"
		},
		{
			"bufferView" : 1,
			"byteOffset" : 959040,
			"componentType" : 5126,
			"count" : 19992,
			"max" : 
			[
				-3.786189,
				-2.193287,
				1.879621
			],
			"min" : 
			[
				-4.597512,
				-2.843619,
				-3.286969
			],
			"name" : "accessor_position_m2-PolyPaper21_-93762",
			"type" : "VEC3"
		},
		{
			"bufferView" : 1,
			"byteOffset" : 1438848,
			"componentType" : 5126,
			"count" : 19992,
			"max" : 
			[
				2.246547,
				-2.19126,
				2.972743
			],
			"min" : 
			[
				-4.526404,
				-2.941852,
				-3.246767
			],
			"name" : "accessor_position_m3-PolyPaper21_-93768",
			"type" : "VEC3"
		},
		{
			"bufferView" : 1,
			"byteOffset" : 1918656,
			"componentType" : 5126,
			"count" : 19992,
			"max" : 
			[
				2.198055,
				-2.310826,
				2.760569
			],
			"min" : 
			[
				-3.559925,
				-2.927167,
				2.033451
			],
			"name" : "accessor_position_m4-PolyPaper21_-93774",
			"type" : "VEC3"
		},
		{
			"bufferView" : 1,
			"byteOffset" : 2398464,
			"componentType" : 5126,
			"count" : 19992,
			"max" : 
			[
				3.297438,
				-2.137986,
				2.34083
			],
			"min" : 
			[
				-3.459777,
				-2.956678,
				-3.342936
			],
			"name" : "accessor_position_m5-PolyPaper21_-93780",
			"type" : "VEC3"
		},
		{
			"bufferView" : 1,
			"byteOffset" : 2878272,
			"componentType" : 5126,
			"count" : 13056,
			"max" : 
			[
				2.860744,
				-2.430379,
				1.800021
			],
			"min" : 
			[
				-0.6242605,
				-2.910532,
				-3.718398
			],
			"name" : "accessor_position_m6-PolyPaper21_-93786",
			"type" : "VEC3"
		}
	],
	"asset" : 
	{
		"copyright" : "Unknown",
		"generator" : "glTF 1-to-2 Upgrader for Google Blocks",
		"version" : "2.0"
	},
	"bufferViews" : 
	[
		{
			"buffer" : 0,
			"byteLength" : 375816,
			"byteOffset" : 0,
			"name" : "ushortBufferView",
			"target" : 34963
		},
		{
			"buffer" : 0,
			"byteLength" : 3191616,
			"byteOffset" : 375816,
			"byteStride" : 12,
			"name" : "vec3BufferView",
			"target" : 34962
		},
		{
			"buffer" : 0,
			"byteLength" : 2127744,
			"byteOffset" : 3567432,
			"byteStride" : 16,
			"name" : "vec4BufferView",
			"target" : 34962
		}
	],
	"buffers" : 
	[
		{
			"byteLength" : 5695176,
			"name" : "model",
			"uri" : "model.bin"
		}
	],
	"materials" : 
	[
		{
			"alphaMode" : "OPAQUE",
			"doubleSided" : false,
			"name" : "BlocksPaper",
			"pbrMetallicRoughness" : 
			{
				"baseColorFactor" : 
				[
					1,
					1,
					1,
					1
				],
				"metallicFactor" : 0,
				"roughnessFactor" : 0.6
			}
		},
		{
			"alphaMode" : "BLEND",
			"doubleSided" : false,
			"name" : "BlocksGlass",
			"pbrMetallicRoughness" : 
			{
				"baseColorFactor" : 
				[
					0.2,
					0.2,
					1,
					0.3
				],
				"metallicFactor" : 1,
				"roughnessFactor" : 0.4
			}
		},
		{
			"alphaMode" : "OPAQUE",
			"doubleSided" : true,
			"name" : "BlocksGem",
			"pbrMetallicRoughness" : 
			{
				"baseColorFactor" : 
				[
					1,
					0.4,
					1,
					1
				],
				"metallicFactor" : 0,
				"roughnessFactor" : 0.1
			}
		}
	],
	"meshes" : 
	[
		{
			"name" : "mesh_m0-PolyPaper21_-93750",
			"primitives" : 
			[
				{
					"attributes" : 
					{
						"COLOR_0" : 0,
						"NORMAL" : 14,
						"POSITION" : 21
					},
					"indices" : 7,
					"material" : 0,
					"mode" : 4
				}
			]
		},
		{
			"name" : "mesh_m1-PolyPaper21_-93756",
			"primitives" : 
			[
				{
					"attributes" : 
					{
						"COLOR_0" : 1,
						"NORMAL" : 15,
						"POSITION" : 22
					},
					"indices" : 8,
					"material" : 0,
					"mode" : 4
				}
			]
		},
		{
			"name" : "mesh_m2-PolyPaper21_-93762",
			"primitives" : 
			[
				{
					"attributes" : 
					{
						"COLOR_0" : 2,
						"NORMAL" : 16,
						"POSITION" : 23
					},
					"indices" : 9,
					"material" : 0,
					"mode" : 4
				}
			]
		},
		{
			"name" : "mesh_m3-PolyPaper21_-93768",
			"primitives" : 
			[
				{
					"attributes" : 
					{
						"COLOR_0" : 3,
						"NORMAL" : 17,
						"POSITION" : 24
					},
					"indices" : 10,
					"material" : 0,
					"mode" : 4
				}
			]
		},
		{
			"name" : "mesh_m4-PolyPaper21_-93774",
			"primitives" : 
			[
				{
					"attributes" : 
					{
						"COLOR_0" : 4,
						"NORMAL" : 18,
						"POSITION" : 25
					},
					"indices" : 11,
					"material" : 0,
					"mode" : 4
				}
			]
		},
		{
			"name" : "mesh_m5-PolyPaper21_-93780",
			"primitives" : 
			[
				{
					"attributes" : 
					{
						"COLOR_0" : 5,
						"NORMAL" : 19,
						"POSITION" : 26
					},
					"indices" : 12,
					"material" : 0,
					"mode" : 4
				}
			]
		},
		{
			"name" : "mesh_m6-PolyPaper21_-93786",
			"primitives" : 
			[
				{
					"attributes" : 
					{
						"COLOR_0" : 6,
						"NORMAL" : 20,
						"POSITION" : 27
					},
					"indices" : 13,
					"material" : 0,
					"mode" : 4
				}
			]
		}
	],
	"nodes" : 
	[
		{
			"matrix" : 
			[
				1,
				0,
				0,
				0,
				0,
				1,
				0,
				0,
				0,
				0,
				1,
				0,
				0,
				0,
				0,
				1
			],
			"mesh" : 2,
			"name" : "node_MeshObject-309266432-PolyPaper21"
		},
		{
			"matrix" : 
			[
				1,
				0,
				0,
				0,
				0,
				1,
				0,
				0,
				0,
				0,
				1,
				0,
				0,
				0,
				0,
				1
			],
			"mesh" : 0,
			"name" : "node_MeshObject-608428032-PolyPaper21"
		},
		{
			"matrix" : 
			[
				1,
				0,
				0,
				0,
				0,
				1,
				0,
				0,
				0,
				0,
				1,
				0,
				0,
				0,
				0,
				1
			],
			"mesh" : 1,
			"name" : "node_MeshObject-881345536-PolyPaper21"
		},
		{
			"matrix" : 
			[
				1,
				0,
				0,
				0,
				0,
				1,
				0,
				0,
				0,
				0,
				1,
				0,
				0,
				0,
				0,
				1
			],
			"mesh" : 6,
			"name" : "node_MeshObject1534145536-PolyPaper21"
		},
		{
			"matrix" : 
			[
				1,
				0,
				0,
				0,
				0,
				1,
				0,
				0,
				0,
				0,
				1,
				0,
				0,
				0,
				0,
				1
			],
			"mesh" : 3,
			"name" : "node_MeshObject262812672-PolyPaper21"
		},
		{
			"matrix" : 
			[
				1,
				0,
				0,
				0,
				0,
				1,
				0,
				0,
				0,
				0,
				1,
				0,
				0,
				0,
				0,
				1
			],
			"mesh" : 4,
			"name" : "node_MeshObject389987328-PolyPaper21"
		},
		{
			"matrix" : 
			[
				1,
				0,
				0,
				0,
				0,
				1,
				0,
				0,
				0,
				0,
				1,
				0,
				0,
				0,
				0,
				1
			],
			"mesh" : 5,
			"name" : "node_MeshObject962066432-PolyPaper21"
		}
	],
	"scene" : 0,
	"scenes" : 
	[
		{
			"extras" : {},
			"name" : "defaultScene",
			"nodes" : 
			[
				1,
				2,
				0,
				4,
				5,
				6,
				3
			]
		}
	]
}