{
  "accessors": [
    {
      "bufferView": 1,
      "componentType": 5126,
      "count": 135,
      "max": [
        3.2078857421875,
        266.99334716796875,
        3.20849609375
      ],
      "min": [
        -3.2078857421875,
        228.3358154296875,
        -3.20849609375
      ],
      "type": "VEC3"
    },
    {
      "bufferView": 1,
      "byteOffset": 1620,
      "componentType": 5126,
      "count": 135,
      "max": [
        1,
        1,
        1
      ],
      "min": [
        -1,
        -1,
        -1
      ],
      "type": "VEC3"
    },
    {
      "bufferView": 2,
      "componentType": 5126,
      "count": 135,
      "max": [
        1,
        0.99629908800125122,
        1,
        1
      ],
      "min": [
        -1,
        -0.996296226978302,
        -1,
        1
      ],
      "type": "VEC4"
    },
    {
      "bufferView": 0,
      "componentType": 5125,
      "count": 240,
      "max": [
        134
      ],
      "min": [
        0
      ],
      "type": "SCALAR"
    },
    {
      "bufferView": 1,
      "byteOffset": 3240,
      "componentType": 5126,
      "count": 36,
      "max": [
        2.7601318359375,
        229.8804931640625,
        2.759521484375
      ],
      "min": [
        -2.7603759765625,
        -266.99334716796875,
        -2.7607421875
      ],
      "type": "VEC3"
    },
    {
      "bufferView": 1,
      "byteOffset": 3672,
      "componentType": 5126,
      "count": 36,
      "max": [
        1,
        1,
        1
      ],
      "min": [
        -1,
        -1,
        -1
      ],
      "type": "VEC3"
    },
    {
      "bufferView": 2,
      "byteOffset": 2160,
      "componentType": 5126,
      "count": 36,
      "max": [
        1,
        7.0126470745890401e-06,
        1,
        1
      ],
      "min": [
        -1,
        -5.6650269470992498e-06,
        -1,
        1
      ],
      "type": "VEC4"
    },
    {
      "bufferView": 0,
      "byteOffset": 960,
      "componentType": 5125,
      "count": 96,
      "max": [
        35
      ],
      "min": [
        0
      ],
      "type": "SCALAR"
    }
  ],
  "asset": {
    "extras": {
      "author": "BlackSpire (https://sketchfab.com/blackspire)",
      "license": "CC-BY-4.0 (http://creativecommons.org/licenses/by/4.0/)",
      "source": "https://sketchfab.com/models/29bcdeacffdc497eb37cc99d3bb98999",
      "title": "Castle_Flag_Pole_02"
    },
    "generator": "Sketchfab-3.18.7",
    "version": "2.0"
  },
  "bufferViews": [
    {
      "buffer": 0,
      "byteLength": 1344,
      "byteOffset": 0,
      "name": "floatBufferViews",
      "target": 34963
    },
    {
      "buffer": 0,
      "byteLength": 4104,
      "byteOffset": 1344,
      "byteStride": 12,
      "name": "floatBufferViews",
      "target": 34962
    },
    {
      "buffer": 0,
      "byteLength": 2736,
      "byteOffset": 5448,
      "byteStride": 16,
      "name": "floatBufferViews",
      "target": 34962
    }
  ],
  "buffers": [
    {
      "byteLength": 8184,
      "uri": "scene.bin"
    }
  ],
  "materials": [
    {
      "doubleSided": true,
      "emissiveFactor": [
        0,
        0,
        0
      ],
      "name": "Gold_01_Mat",
      "pbrMetallicRoughness": {
        "baseColorFactor": [
          1,
          0.65385000000000004,
          0,
          1
        ],
        "metallicFactor": 0,
        "roughnessFactor": 1
      }
    },
    {
      "doubleSided": true,
      "emissiveFactor": [
        0,
        0,
        0
      ],
      "name": "Ferro03_Mat",
      "pbrMetallicRoughness": {
        "baseColorFactor": [
          0.27200000000000002,
          0.27200000000000002,
          0.27200000000000002,
          1
        ],
        "metallicFactor": 0,
        "roughnessFactor": 1
      }
    }
  ],
  "meshes": [
    {
      "name": "pCylinder357_Gold_01_Mat_0",
      "primitives": [
        {
          "attributes": {
            "NORMAL": 1,
            "POSITION": 0,
            "TANGENT": 2
          },
          "indices": 3,
          "material": 0,
          "mode": 4
        }
      ]
    },
    {
      "name": "pCylinder357_Ferro03_Mat_0",
      "primitives": [
        {
          "attributes": {
            "NORMAL": 5,
            "POSITION": 4,
            "TANGENT": 6
          },
          "indices": 7,
          "material": 1,
          "mode": 4
        }
      ]
    }
  ],
  "nodes": [
    {
      "children": [
        1
      ],
      "name": "RootNode (gltf orientation matrix)",
      "rotation": [
        -0.70710678118654746,
        -0,
        -0,
        0.70710678118654757
      ]
    },
    {
      "children": [
        2
      ],
      "name": "RootNode (model correction matrix)"
    },
    {
      "children": [
        3
      ],
      "matrix": [
        1,
        0,
        0,
        0,
        0,
        0,
        1,
        0,
        0,
        -1,
        0,
        0,
        0,
        0,
        0,
        1
      ],
      "name": "c0888be87f6b42b580be38a72f49d612.fbx"
    },
    {
      "children": [
        4
      ],
      "name": "RootNode"
    },
    {
      "children": [
        5,
        6
      ],
      "matrix": [
        0.0099999997764825821,
        0,
        0,
        0,
        0,
        0.0099999997764825821,
        0,
        0,
        0,
        0,
        0.0099999997764825821,
        0,
        0,
        0,
        0,
        1
      ],
      "name": "pCylinder357"
    },
    {
      "mesh": 0,
      "name": "pCylinder357_Gold_01_Mat_0"
    },
    {
      "mesh": 1,
      "name": "pCylinder357_Ferro03_Mat_0"
    }
  ],
  "scene": 0,
  "scenes": [
    {
      "name": "OSG_Scene",
      "nodes": [
        0
      ]
    }
  ]
}

